<svg width="80" height="80" viewBox="0 0 80 80" fill="none" xmlns="http://www.w3.org/2000/svg">
<path d="M14.4047 38.1825C13.3861 27.0347 6.08628 23.4768 4.1623 22.2602C2.64151 25.3371 1.48146 28.6192 0.802408 32.0852C0.802408 33.4009 -2.02696 42.5115 2.9386 54.6637C8.85909 69.2916 23.2253 79.6259 40.0389 79.6259C47.466 79.6259 54.398 77.5746 60.3609 74.0661C62.0939 60.6832 51.8869 53.0085 44.7639 47.2012C37.3368 41.1604 38.0158 32.4247 38.6878 29.4751C38.7656 29.1214 38.8717 28.796 38.9991 28.4848C34.7125 29.0578 33.7293 25.1391 33.7293 25.1391C33.7293 25.1391 39.1971 26.7023 42.1963 24.9269C43.7241 24.1488 44.962 22.7765 44.962 20.4564C44.6649 17.4502 42.2741 16.2336 40.2864 16.0426C30.9707 15.1443 27.5259 22.6351 27.5259 22.6351C22.2916 33.8535 34.4791 44.5557 38.0795 50.3135C38.8293 51.523 39.6145 53.2348 40.0035 54.4727C42.6843 65.6204 34.4084 73.1324 25.8849 73.1749C15.7628 73.0051 11.6531 64.9414 11.1438 59.3958C10.2879 50.8298 14.723 44.3223 14.4047 38.1825ZM69.3017 12.8595C69.3229 12.8383 69.33 12.8171 69.3442 12.7959C62.0373 4.94434 51.6322 0 40.0318 0C28.2828 0 17.4816 5.16362 10.1606 13.192C22.6594 24.6368 19.6532 36.6122 18.2455 41.8466C15.8476 50.1508 14.723 53.7441 14.723 58.2853C14.5532 68.7115 23.3101 68.8035 23.777 68.7398C30.0299 68.6762 33.312 63.1659 32.8027 58.5399C32.4632 55.3922 32.0034 51.6504 28.0494 44.2374C21.8318 31.6749 21.8035 26.4618 22.815 22.3521C18.196 19.9259 17.1845 15.1443 18.4931 11.3246C21.5276 15.6465 27.8089 17.2309 32.93 14.7764C33.5949 14.4581 34.8682 13.8003 35.8655 13.4608C42.8541 11.5439 47.4235 14.9886 49.5102 17.8675C55.5014 19.8481 58.4935 25.3159 59.1867 29.6378C56.1734 25.613 50.7551 25.4149 47.9894 26.9711C44.7993 28.6899 43.3987 31.5476 43.1582 33.2948C41.4748 41.0119 50.1822 45.256 60.4387 53.5743C66.6633 58.7804 68.7005 63.8945 69.3795 66.7876C71.2257 64.7928 72.7324 62.8193 74.147 60.4851C67.6041 53.3551 63.6147 43.8554 63.6147 33.4221C63.6147 29.2629 64.2513 25.2593 65.4255 21.4821C66.9321 15.9931 69.2169 12.9161 69.2169 12.9161L69.3017 12.8595ZM79.3036 32.3115C78.6245 28.8102 77.4787 25.4786 75.9508 22.3663C75.9508 22.3663 75.8022 22.055 75.5476 21.5528C71.8765 27.056 69.7403 33.6201 69.7403 40.6794C69.7403 44.4213 70.3486 48.0217 71.4521 51.4099C72.0675 53.0792 72.796 54.8193 73.6661 56.6371C74.0834 57.4506 74.5432 58.2428 75.0241 59.0138C75.873 57.4718 76.6511 55.8732 77.2947 54.218C81.5105 41.4575 79.6219 34.377 79.3036 32.3115Z" fill="url(#paint0_linear)"/>
<defs>
<linearGradient id="paint0_linear" x1="39.9998" y1="0" x2="39.9998" y2="79.6259" gradientUnits="userSpaceOnUse">
<stop stop-color="#C42127"/>
<stop offset="1" stop-color="#DE350B"/>
</linearGradient>
</defs>
</svg>
